<svg width="36" height="36" viewBox="0 0 36 36" fill="none" xmlns="http://www.w3.org/2000/svg">
<circle cx="18" cy="18" r="17" fill="white" stroke="#4D3D64" stroke-width="2"/>
<path d="M25.992 11.6C25.992 10.72 25.28 10 24.4 10H11.6C10.72 10 10 10.72 10 11.6V21.2C10 22.08 10.72 22.8 11.6 22.8H22.8L26 26L25.992 11.6ZM22 19.6H14C13.56 19.6 13.2 19.24 13.2 18.8C13.2 18.36 13.56 18 14 18H22C22.44 18 22.8 18.36 22.8 18.8C22.8 19.24 22.44 19.6 22 19.6ZM22 17.2H14C13.56 17.2 13.2 16.84 13.2 16.4C13.2 15.96 13.56 15.6 14 15.6H22C22.44 15.6 22.8 15.96 22.8 16.4C22.8 16.84 22.44 17.2 22 17.2ZM22 14.8H14C13.56 14.8 13.2 14.44 13.2 14C13.2 13.56 13.56 13.2 14 13.2H22C22.44 13.2 22.8 13.56 22.8 14C22.8 14.44 22.44 14.8 22 14.8Z" fill="#4D3D64"/>
</svg>
