<svg xmlns="http://www.w3.org/2000/svg" viewBox="0 0 500 500"><defs><style>.cls-1,.cls-2,.cls-4{fill:none;}.cls-1,.cls-2,.cls-3,.cls-4{stroke:#4d3d64;stroke-miterlimit:10;}.cls-1{stroke-width:3px;}.cls-2,.cls-3{stroke-width:2px;}.cls-3{fill:#9e82d6;}</style></defs><g id="ESIEE"><path class="cls-1" d="M264.72,258l-15.6,21.1-7.83,10.57-2.42,3.28-7.55,10.21H79.76a520.91,520.91,0,0,1,59.68-24.06h0a463.5,463.5,0,0,1,58-15.61c8.06-1.58,16.25-2.91,24.46-3.9,6.48-.78,13-1.34,19.43-1.65,3.69-.18,7.37-.27,11-.27Q258.49,257.64,264.72,258Z"/><path class="cls-1" d="M424.86,303.13H270.93l5.13-10.21,7-13.85,6.78-13.51h0l2.37-4.71c6.13.92,12.23,2,18.25,3.26,7.49,1.53,14.86,3.27,22,5.15,7.74,2,15.24,4.21,22.39,6.46,18.65,5.85,35,12.14,47.17,17.21C416.26,298.85,424.86,303.13,424.86,303.13Z"/><line class="cls-2" x1="436.59" y1="310.6" x2="267.18" y2="310.6"/><line class="cls-2" x1="225.8" y1="310.6" x2="68.03" y2="310.6"/><line class="cls-2" x1="447.6" y1="315.93" x2="264.5" y2="315.93"/><line class="cls-2" x1="221.86" y1="315.93" x2="57.01" y2="315.93"/><line class="cls-2" x1="217.13" y1="322.32" x2="41.73" y2="322.32"/><line class="cls-2" x1="458.27" y1="322.32" x2="261.29" y2="322.32"/><polygon class="cls-3" points="354.84 136.09 292.17 260.84 289.8 265.55 289.8 265.56 283.02 279.07 276.06 292.92 270.93 303.13 267.18 310.6 264.5 315.93 261.29 322.32 240.4 363.91 186.38 363.91 217.13 322.32 221.86 315.93 225.8 310.6 231.32 303.13 238.87 292.92 241.29 289.64 249.12 279.07 264.72 257.97 354.84 136.09"/><polyline class="cls-4" points="363.74 279.07 354.84 279.07 332.45 279.07 310.42 279.07 289.8 279.07 283.02 279.07"/><polyline class="cls-4" points="249.12 279.07 241.29 279.07 221.86 279.07 197.4 279.07 139.44 279.07 139.44 279.07"/><polyline class="cls-4" points="104.14 292.92 197.4 292.92 221.86 292.92 238.87 292.92"/><polyline class="cls-4" points="276.06 292.92 289.8 292.92 310.42 292.92 332.45 292.92 354.84 292.92 402.01 292.92"/><line class="cls-4" x1="172.24" y1="303.13" x2="172.24" y2="269.23"/><line class="cls-4" x1="148.35" y1="303.13" x2="148.35" y2="276.16"/><line class="cls-4" x1="197.4" y1="303.13" x2="197.4" y2="263.46"/><line class="cls-4" x1="221.86" y1="303.13" x2="221.86" y2="259.56"/><line class="cls-4" x1="241.3" y1="289.64" x2="241.3" y2="257.91"/><polyline class="cls-4" points="289.8 265.56 289.8 279.07 289.8 292.92 289.8 303.13"/><line class="cls-4" x1="310.42" y1="303.13" x2="310.42" y2="264.1"/><line class="cls-4" x1="332.45" y1="303.13" x2="332.45" y2="269.23"/><line class="cls-4" x1="354.84" y1="303.13" x2="354.84" y2="275.71"/></g></svg>