<svg xmlns="http://www.w3.org/2000/svg" viewBox="0 0 342.67 253.92"><defs><style>.cls-1,.cls-3{fill:#4d3d64;}.cls-2{fill:#ccc;}.cls-3{font-size:36.6px;font-family:Montserrat-Light, Montserrat;font-weight:300;}.cls-4{letter-spacing:-0.01em;}.cls-5{fill:none;stroke:#4d3d64;stroke-linecap:round;stroke-miterlimit:10;stroke-width:2px;}</style></defs><g id="Calque_2" data-name="Calque 2"><g id="Calque_2-2" data-name="Calque 2"><path class="cls-1" d="M171.33,0c46.77,0,67.18,31.78,67.18,75.57,0,22.11-11.48,38.12-11.48,54.28S244,133,253,132.54s17,1.28,20.83,8.08c6.81,0,17.86-.85,20,11v3s8.07-3,20.4-3S331,155.78,336.29,161s6.38,14.88,6.38,23.39v26.36s-.15,2.23-7.38,2.23-7.34-2.23-7.34-2.23-.16-23.67-20.57-23.67h0c-20.4,0-20.57,23.67-20.57,23.67s-.1,2.23-7.33,2.23-7.38-2.23-7.38-2.23,3.88-14.67,0-26.36-49.47-29.76-49.47-29.76c-16.56-4.82-19.28-13.47-19.14-24.24.15-12.47,19.56-28.2,19.56-54.13S214,15.94,171.33,15.94s-51.72,34.4-51.72,60.34,19.41,41.66,19.55,54.13c.15,10.77-2.57,19.42-19.13,24.24,0,0-45.58,18.07-49.47,29.76s0,26.36,0,26.36S70.41,213,63.18,213s-7.33-2.23-7.33-2.23-.17-23.67-20.58-23.67h0c-20.41,0-20.58,23.67-20.58,23.67S14.61,213,7.38,213,0,210.77,0,210.77V184.41C0,175.9,1.11,166.27,6.38,161s9.78-9.35,22.1-9.35,20.41,3,20.41,3v-3c2.13-11.9,13.18-11,20-11,3.83-6.8,11.91-8.51,20.84-8.08s25.93,13.46,25.93-2.69-11.48-32.17-11.48-54.28C104.16,31.78,124.57,0,171.33,0Z"/><ellipse class="cls-2" cx="95.62" cy="138.71" rx="1.81" ry="3.63" transform="translate(-70.91 164.25) rotate(-64.14)"/><ellipse class="cls-2" cx="247.05" cy="138.71" rx="3.63" ry="1.81" transform="translate(-35.76 121.64) rotate(-25.86)"/><path class="cls-1" d="M298,192.4c-1.81,2.87-.63,18.68-.63,18.68s0,1.1-4,1.1-4-1.59-4-1.59S290.32,195.31,298,192.4Z"/><path class="cls-1" d="M44.9,192.4c1.8,2.87.63,18.68.63,18.68s0,1.1,4,1.1,4-1.59,4-1.59S52.59,195.31,44.9,192.4Z"/><path class="cls-1" d="M316.94,192.4c1.81,2.87.63,18.68.63,18.68s0,1.1,4,1.1,4-1.59,4-1.59S324.63,195.31,316.94,192.4Z"/><path class="cls-1" d="M26,192.4c-1.81,2.87-.63,18.68-.63,18.68s0,1.1-4,1.1-4-1.59-4-1.59S18.28,195.31,26,192.4Z"/><path class="cls-2" d="M293.42,147.53a8.39,8.39,0,0,1,1.9,5.06,7.52,7.52,0,0,1-.54,2.86,7.36,7.36,0,0,1-1.71,2.4,10.33,10.33,0,0,1-4.95,2.55,9.21,9.21,0,0,1-5.36-.38,18,18,0,0,0,4.92-1.11,13.07,13.07,0,0,0,4-2.51,4.9,4.9,0,0,0,.75-.83,6.44,6.44,0,0,0,.62-.92,7.52,7.52,0,0,0,.69-2.15A13.94,13.94,0,0,0,293.42,147.53Z"/><path class="cls-2" d="M49.14,147.78a14,14,0,0,0-.35,5,7.64,7.64,0,0,0,.7,2.15,7.34,7.34,0,0,0,.61.92,4.9,4.9,0,0,0,.76.82,12.7,12.7,0,0,0,4,2.51,17.52,17.52,0,0,0,4.92,1.12,9.22,9.22,0,0,1-5.36.38,10.29,10.29,0,0,1-4.95-2.55,7.21,7.21,0,0,1-1.71-2.4,7.52,7.52,0,0,1-.54-2.86A8.33,8.33,0,0,1,49.14,147.78Z"/><text class="cls-3" transform="translate(93.22 244.37)"><tspan class="cls-4">C</tspan><tspan x="25.88" y="0">ampoo</tspan></text><line class="cls-5" x1="86.39" y1="211.72" x2="256.27" y2="211.72"/></g></g></svg>