<svg width="24" height="24" viewBox="0 0 24 24" fill="none" xmlns="http://www.w3.org/2000/svg">
<g clip-path="url(#clip0)">
<path d="M20.297 12.988C20.349 12.6038 20.3767 12.2167 20.38 11.829C20.3767 11.4413 20.349 11.0542 20.297 10.67L22.797 8.718C22.9057 8.62853 22.9795 8.50368 23.0055 8.36529C23.0314 8.2269 23.0079 8.08378 22.939 7.961L20.569 3.868C20.517 3.7761 20.4414 3.69981 20.3499 3.64705C20.2585 3.5943 20.1546 3.567 20.049 3.568C19.9807 3.56722 19.9129 3.57909 19.849 3.603L16.902 4.791C16.2902 4.31684 15.6175 3.92702 14.902 3.632L14.453 0.499997C14.4342 0.360151 14.3648 0.232047 14.2579 0.139914C14.151 0.0477797 14.0141 -0.00199723 13.873 -3.37556e-06H9.14198C9.00089 -0.00199723 8.86396 0.0477797 8.75708 0.139914C8.65021 0.232047 8.5808 0.360151 8.56198 0.499997L8.11298 3.635C7.3997 3.93463 6.7276 4.32411 6.11298 4.794L3.16898 3.608C3.10034 3.58489 3.02841 3.57307 2.95598 3.573C2.85217 3.57343 2.75034 3.60144 2.66091 3.65415C2.57147 3.70686 2.49765 3.78239 2.44698 3.873L0.0819826 7.961C0.00956891 8.08287 -0.0159578 8.22695 0.0101786 8.36628C0.036315 8.50562 0.112323 8.63065 0.223983 8.718L2.72398 10.67C2.67239 11.0542 2.64467 11.4413 2.64098 11.829C2.64467 12.2167 2.67239 12.6037 2.72398 12.988L0.223983 14.94C0.115251 15.0295 0.0414459 15.1543 0.015486 15.2927C-0.0104739 15.4311 0.0130649 15.5742 0.0819826 15.697L2.44798 19.79C2.49996 19.8819 2.57561 19.9582 2.66705 20.0109C2.7585 20.0637 2.86241 20.091 2.96798 20.09C3.03624 20.0908 3.10405 20.0789 3.16798 20.055L6.11298 18.872C6.72474 19.3461 7.39742 19.736 8.11298 20.031L8.56198 23.166C8.5808 23.3058 8.65021 23.4339 8.75708 23.5261C8.86396 23.6182 9.00089 23.668 9.14198 23.666H13.873C14.0141 23.668 14.151 23.6182 14.2579 23.5261C14.3648 23.4339 14.4342 23.3058 14.453 23.166L14.902 20.031C15.6153 19.7314 16.2874 19.3419 16.902 18.872L19.847 20.055C19.9156 20.0781 19.9876 20.0899 20.06 20.09C20.1638 20.0896 20.2656 20.0616 20.3551 20.0088C20.4445 19.9561 20.5183 19.8806 20.569 19.79L22.934 15.7C23.0029 15.5772 23.0264 15.4341 23.0005 15.2957C22.9745 15.1573 22.9007 15.0325 22.792 14.943L20.297 12.988ZM17.955 10.965C17.9943 11.251 18.014 11.5393 18.014 11.828C18.014 12.076 17.99 12.337 17.955 12.691L17.789 14.028L18.842 14.856L20.119 15.85L19.291 17.281L17.791 16.681L16.561 16.181L15.496 16.981C15.0406 17.3287 14.5438 17.6186 14.017 17.844L12.763 18.353L12.574 19.69L12.337 21.29H10.68L10.455 19.69L10.266 18.353L9.01198 17.844C8.49371 17.626 8.00488 17.3438 7.55698 17.004L6.48098 16.176L5.22898 16.69L3.72898 17.29L2.90098 15.859L4.17798 14.865L5.22898 14.041L5.06198 12.7C5.02698 12.333 5.00298 12.061 5.00298 11.825C5.00298 11.589 5.02698 11.316 5.06198 10.962L5.22898 9.628L4.17398 8.8L2.89698 7.807L3.72898 6.376L5.22898 6.976L6.45898 7.476L7.52398 6.676C7.9794 6.32828 8.47619 6.0384 9.00298 5.813L10.254 5.3L10.443 3.963L10.68 2.363H12.329L12.554 3.963L12.738 5.3L13.992 5.809C14.5103 6.02694 14.9991 6.30915 15.447 6.649L16.523 7.477L17.777 6.968L19.277 6.368L20.107 7.8L18.842 8.8L17.789 9.628L17.955 10.965ZM11.508 7.1C10.5723 7.1 9.65759 7.37746 8.87958 7.89731C8.10157 8.41716 7.49519 9.15604 7.13711 10.0205C6.77903 10.885 6.68534 11.8362 6.86789 12.754C7.05043 13.6717 7.50102 14.5147 8.16266 15.1763C8.8243 15.838 9.66729 16.2885 10.585 16.4711C11.5027 16.6536 12.454 16.5599 13.3185 16.2019C14.1829 15.8438 14.9218 15.2374 15.4417 14.4594C15.9615 13.6814 16.239 12.7667 16.239 11.831C16.2391 11.2097 16.1168 10.5944 15.8791 10.0204C15.6414 9.44631 15.2929 8.92472 14.8536 8.48538C14.4143 8.04604 13.8927 7.69756 13.3186 7.45985C12.7446 7.22215 12.1293 7.09987 11.508 7.1ZM11.508 14.2C11.04 14.2 10.5826 14.0612 10.1935 13.8013C9.80442 13.5413 9.50116 13.1718 9.32208 12.7394C9.14301 12.3071 9.09615 11.8314 9.18744 11.3724C9.27874 10.9135 9.50408 10.4919 9.83497 10.161C10.1659 9.83009 10.5874 9.60475 11.0464 9.51346C11.5054 9.42217 11.9811 9.46902 12.4134 9.6481C12.8457 9.82717 13.2153 10.1304 13.4752 10.5195C13.7352 10.9086 13.874 11.366 13.874 11.834C13.8706 12.4599 13.62 13.0591 13.1769 13.5011C12.7337 13.9431 12.1339 14.1922 11.508 14.194V14.2Z" fill="#4D3D64"/>
</g>
<defs>
<clipPath id="clip0">
<rect width="23.012" height="23.657" fill="white"/>
</clipPath>
</defs>
</svg>
